<?xml version="1.0" standalone="no"?>
<!DOCTYPE svg PUBLIC "-//W3C//DTD SVG 20010904//EN"
 "http://www.w3.org/TR/2001/REC-SVG-20010904/DTD/svg10.dtd">
<svg version="1.0" xmlns="http://www.w3.org/2000/svg"
 width="1000.000000pt" height="1000.000000pt" viewBox="0 0 1000.000000 1000.000000"
 preserveAspectRatio="xMidYMid meet">

<g transform="translate(0.000000,1000.000000) scale(0.100000,-0.100000)"
fill="#000000" stroke="none">
<path d="M3554 8868 c-19 -31 28 -295 72 -403 14 -33 43 -123 65 -200 22 -77
56 -187 76 -245 43 -131 73 -280 73 -369 0 -49 4 -72 15 -81 17 -14 20 -46 5
-55 -6 -4 -7 -11 -4 -17 11 -18 13 -102 2 -115 -16 -20 -1 -43 28 -43 22 0 25
-2 14 -15 -7 -8 -10 -21 -7 -29 3 -7 1 -18 -5 -24 -7 -7 5 -18 40 -36 59 -30
65 -42 45 -85 -19 -37 -61 -62 -91 -54 -17 4 -22 1 -22 -16 0 -13 -5 -19 -14
-15 -10 4 -15 -11 -19 -58 -3 -35 -13 -119 -22 -188 -8 -69 -12 -136 -9 -150
4 -14 7 -28 6 -31 -8 -43 -42 -295 -44 -329 -1 -27 -11 -58 -24 -78 -13 -18
-25 -46 -29 -62 -5 -21 -13 -30 -26 -30 -53 0 -150 -82 -265 -227 -147 -183
-196 -244 -264 -326 -183 -219 -182 -218 -176 -243 4 -14 18 -34 31 -46 14
-12 25 -32 25 -47 0 -42 41 -113 99 -171 61 -60 222 -156 247 -146 8 3 13 2
10 -3 -8 -12 57 -37 158 -62 54 -14 130 -22 229 -26 l147 -6 0 -36 c-1 -43
-16 -116 -58 -271 -17 -63 -45 -189 -61 -280 -43 -231 -73 -351 -91 -361 -8
-4 -27 -10 -42 -13 -30 -7 -88 -52 -88 -69 0 -6 13 1 28 16 27 26 88 54 98 44
3 -3 0 -32 -7 -64 -11 -52 -17 -62 -47 -79 -20 -10 -38 -25 -40 -33 -3 -10 5
-7 23 7 36 29 45 28 45 -5 0 -41 -11 -73 -24 -73 -18 0 -86 -49 -86 -62 0 -6
10 -2 23 9 38 35 68 47 78 32 20 -32 9 -75 -27 -110 -31 -29 -82 -109 -70
-109 2 0 16 20 30 44 24 42 69 86 87 86 4 0 10 -8 13 -18 4 -10 26 -38 51 -63
43 -42 45 -46 41 -89 l-5 -45 11 38 c5 20 13 37 17 37 26 0 89 -101 83 -132
-1 -4 -6 -25 -11 -48 -5 -23 -5 -40 0 -40 5 0 9 9 9 19 0 11 4 31 9 44 10 25
10 25 45 9 24 -11 35 -22 32 -32 -3 -8 -26 -76 -52 -150 -52 -149 -51 -137
-36 -400 12 -218 49 -310 193 -492 32 -40 85 -107 117 -148 33 -42 78 -88 100
-103 22 -16 58 -50 81 -77 41 -48 174 -145 346 -251 103 -64 428 -249 437
-249 3 0 30 -16 59 -36 79 -53 173 -98 267 -128 135 -42 238 -32 301 31 31 31
37 33 62 23 15 -7 37 -9 49 -5 11 4 62 46 113 94 51 48 158 142 238 209 80 66
179 158 218 204 74 85 195 266 248 373 39 76 134 310 161 395 36 111 97 448
110 606 8 87 6 109 -14 185 -13 47 -42 126 -64 175 -23 49 -55 125 -70 169
-48 137 -147 382 -181 446 -18 34 -52 81 -76 106 -24 24 -43 49 -43 56 -1 31
-41 98 -65 107 -18 7 -25 17 -25 35 0 30 -34 128 -84 241 -48 108 -55 170 -66
584 -9 343 -19 450 -62 695 -11 66 -24 165 -28 220 -5 55 -11 119 -15 142 -8
47 24 171 50 193 9 7 32 45 51 84 19 39 41 76 48 81 28 22 52 98 61 190 2 22
7 54 10 70 4 19 -4 69 -21 135 -36 138 -38 269 -6 387 28 106 28 113 -4 113
-24 0 -25 3 -19 33 9 43 61 198 91 269 13 31 54 103 90 159 37 57 68 114 70
126 1 12 11 35 22 50 11 15 39 66 63 113 24 47 60 106 82 131 21 26 37 53 36
60 -1 8 10 41 25 74 15 33 41 94 58 135 16 41 34 79 39 84 12 13 11 46 -1 46
-14 0 -79 -59 -280 -255 -91 -89 -246 -236 -345 -327 -188 -173 -229 -216
-365 -387 -45 -57 -126 -151 -180 -210 -130 -142 -129 -141 -350 -106 -77 13
-172 19 -285 19 -153 1 -188 -2 -344 -32 -103 -20 -176 -29 -180 -24 -3 5 -26
37 -51 71 -24 33 -63 102 -85 153 -45 102 -111 211 -192 317 -29 38 -68 95
-87 128 -19 33 -54 75 -77 94 -120 99 -223 226 -365 449 -110 173 -140 210
-174 210 -16 0 -32 -5 -36 -12z m561 -2380 c14 -12 25 -28 25 -35 0 -8 4 -12
9 -9 11 7 19 -32 12 -60 -4 -13 -13 -20 -23 -18 -10 1 -18 -2 -18 -8 0 -6 -7
-7 -16 -4 -23 9 -54 -12 -54 -36 0 -12 -3 -19 -6 -15 -3 3 -16 -3 -27 -14 -15
-13 -23 -16 -28 -8 -4 7 -14 9 -24 6 -10 -4 -14 -3 -10 4 4 5 2 15 -4 22 -5 7
-14 25 -20 40 -9 24 -7 31 29 66 22 22 40 43 40 48 0 10 57 41 77 42 7 1 24
-9 38 -21z m868 -32 c15 -6 27 -15 27 -19 0 -5 4 -6 9 -3 5 3 9 -5 9 -18 0
-18 -5 -23 -15 -19 -12 5 -14 1 -8 -15 5 -17 2 -22 -11 -22 -14 0 -15 -3 -6
-12 18 -18 14 -30 -6 -19 -11 6 -24 6 -33 0 -11 -7 -10 -9 6 -9 19 -1 19 -1 2
-14 -10 -8 -16 -20 -15 -27 2 -8 -7 -15 -21 -17 -18 -3 -22 0 -18 12 4 9 4 16
1 16 -10 0 -34 -28 -34 -39 0 -6 -13 -11 -30 -11 -16 0 -30 5 -30 10 0 6 -7
10 -16 10 -26 0 -13 90 19 139 42 64 103 84 170 57z m1213 -263 c10 -71 -2
-182 -29 -263 -52 -154 -106 -297 -144 -380 -22 -47 -60 -129 -84 -182 -40
-87 -46 -95 -60 -82 -15 14 -11 26 52 144 38 71 69 132 69 135 0 3 22 55 50
115 79 176 100 268 100 436 0 77 3 144 7 148 12 12 32 -24 39 -71z m-1336 -37
c0 -3 -4 -8 -10 -11 -5 -3 -10 -1 -10 4 0 6 5 11 10 11 6 0 10 -2 10 -4z
m-1185 -50 c12 -12 12 -15 -1 -20 -25 -10 -36 -7 -28 7 4 7 3 9 -2 4 -5 -5 -9
-12 -9 -17 0 -5 -25 -30 -55 -57 -62 -54 -119 -116 -170 -183 -19 -25 -42 -53
-52 -63 -10 -10 -33 -42 -52 -72 -76 -118 -90 -134 -110 -120 -16 12 -10 22
66 116 46 56 94 116 107 133 22 28 135 156 186 212 19 20 93 74 102 74 2 0 11
-6 18 -14z m48 -89 c9 -30 17 -73 17 -97 0 -58 80 -293 132 -387 22 -41 39
-76 37 -78 -2 -1 -42 10 -89 26 -112 37 -242 59 -350 59 -91 0 -223 -20 -260
-40 -37 -20 -35 -17 105 176 161 223 324 394 375 394 11 0 22 -17 33 -53z
m1510 17 c11 -11 -5 -34 -24 -34 -18 0 -26 20 -12 33 8 9 28 9 36 1z m-1285
-37 c2 -12 -3 -17 -17 -17 -12 0 -21 6 -21 13 0 31 32 34 38 4z m1227 -48 c4
-11 4 -24 0 -27 -9 -9 -36 28 -29 39 9 15 22 10 29 -12z m175 -35 c-7 -7 -19
-14 -28 -14 -12 0 -11 5 6 23 12 13 23 30 23 38 1 8 4 4 6 -9 3 -13 -1 -30 -7
-38z m-125 -4 c14 -16 15 -20 4 -20 -16 0 -39 19 -39 32 0 14 16 9 35 -12z
m-1295 -36 c0 -9 -44 14 -48 25 -3 8 5 7 22 -4 14 -10 26 -19 26 -21z m1211
-19 c19 -14 53 -31 77 -37 23 -6 42 -14 42 -19 0 -14 -38 -11 -69 6 -16 8 -31
12 -34 9 -2 -3 -13 6 -23 18 -11 13 -25 28 -33 32 -11 7 -13 3 -7 -19 6 -23 4
-26 -9 -21 -9 3 -19 6 -21 6 -2 0 3 11 12 25 20 31 22 31 65 0z m214 -35 c-3
-5 -14 -10 -23 -9 -14 0 -13 2 3 9 27 11 27 11 20 0z m-1450 -10 c3 -5 1 -10
-4 -10 -6 0 -11 5 -11 10 0 6 2 10 4 10 3 0 8 -4 11 -10z m1402 -6 c-3 -3 -12
-4 -19 -1 -8 3 -5 6 6 6 11 1 17 -2 13 -5z m507 -116 c4 4 6 3 5 -3 -2 -5 3
-21 10 -34 11 -20 11 -25 0 -32 -11 -8 -11 -11 4 -20 18 -11 24 -39 7 -39 -5
0 -10 5 -10 10 0 6 -7 10 -15 10 -8 0 -15 -4 -15 -10 0 -5 5 -10 10 -10 6 0
10 -5 10 -11 0 -7 7 -17 15 -23 12 -9 11 -14 -5 -34 l-18 -22 -21 26 c-26 33
-26 44 -3 44 16 1 16 1 0 14 -10 7 -18 19 -18 25 0 7 -5 9 -11 5 -7 -4 -10 -1
-7 7 3 8 13 13 22 13 9 -1 16 2 16 7 0 19 -42 9 -47 -11 -7 -27 -25 -25 -21 2
2 13 17 32 35 43 24 15 31 25 26 40 -5 17 -3 18 9 8 8 -7 18 -9 22 -5z m-2624
-138 c0 -5 -7 -7 -15 -4 -8 4 -12 10 -9 15 6 11 24 2 24 -11z m-20 -38 c0 -15
-29 -48 -30 -34 0 7 -5 10 -10 7 -6 -4 -8 -10 -5 -15 7 -12 -11 -22 -46 -24
-27 -2 -28 -1 -15 18 8 12 21 20 30 20 9 -1 16 3 16 8 0 6 9 8 19 5 11 -3 22
1 25 8 7 18 -18 26 -35 12 -11 -10 -11 -9 0 5 10 14 18 15 32 7 10 -5 19 -13
19 -17z m460 -7 c52 -9 111 -20 130 -26 212 -65 379 -178 431 -293 23 -50 24
-76 4 -76 -8 0 -15 8 -15 18 0 32 -59 119 -112 166 -58 51 -176 116 -266 147
-77 27 -269 59 -350 59 -224 0 -369 -78 -403 -215 l-7 -30 -1 28 c-1 15 10 49
23 75 67 131 294 190 566 147z m19 -51 c77 -17 176 -51 241 -84 27 -14 39 -27
43 -50 4 -16 13 -30 20 -30 17 0 117 -94 117 -110 0 -6 4 -9 9 -6 10 7 21 -42
14 -61 -10 -26 -60 -4 -67 30 -7 29 -20 48 -52 72 l-34 26 1 -118 c2 -117 -6
-199 -20 -222 -11 -18 -158 -25 -252 -12 -285 40 -513 165 -581 318 -35 78 -3
156 85 207 104 60 300 77 476 40z m-594 -70 c-14 -20 -25 -46 -25 -56 0 -28
-24 -17 -28 13 -3 26 39 79 63 79 11 0 8 -10 -10 -36z m2159 -58 c184 -48 331
-137 375 -229 27 -55 26 -121 0 -167 -11 -19 -18 -27 -15 -17 16 52 17 70 2
121 -39 134 -226 247 -480 291 -104 18 -177 19 -315 5 -208 -22 -369 -99 -429
-206 -17 -31 -25 -9 -8 24 47 90 199 164 426 206 14 3 97 3 185 1 132 -3 177
-8 259 -29z m652 -81 c7 -27 -18 -66 -40 -62 -6 1 -10 -5 -8 -14 4 -25 -38
-55 -107 -78 -36 -11 -68 -21 -73 -21 -8 0 -42 60 -36 64 2 2 26 8 53 15 61
15 104 43 133 87 28 43 68 47 78 9z m-1160 -47 c-6 -10 -14 -18 -18 -18 -5 0
-8 8 -8 18 0 11 7 18 19 18 15 0 17 -3 7 -18z m561 7 c57 -11 115 -46 171
-101 44 -45 52 -57 42 -69 -19 -23 -33 -18 -75 26 -51 51 -113 86 -170 95 -55
8 -72 25 -49 48 9 9 24 15 33 12 9 -2 30 -7 48 -11z m-951 -127 c29 9 36 8 41
-5 8 -20 -20 -41 -64 -49 -62 -12 -104 12 -90 50 5 12 13 12 41 4 26 -8 46 -8
72 0z m184 -2 c14 -1 28 -9 32 -18 4 -10 16 -18 28 -18 11 0 25 -9 32 -19 9
-15 16 -17 30 -10 13 7 21 4 34 -16 10 -15 26 -25 40 -25 12 0 29 -8 36 -18
19 -26 74 -51 99 -45 12 3 24 0 29 -7 6 -9 12 -9 29 -1 17 10 22 9 27 -4 5
-11 14 -14 33 -10 19 4 36 -2 60 -19 18 -14 38 -23 45 -20 7 3 29 -3 50 -11
24 -10 42 -13 48 -7 5 5 24 7 41 3 45 -9 75 -3 82 18 8 26 35 22 35 -6 0 -32
-53 -63 -107 -63 -23 0 -54 -5 -70 -12 -30 -12 -161 -20 -178 -10 -5 4 -48 8
-95 9 -125 5 -162 9 -195 24 -16 8 -32 16 -35 19 -16 16 -90 70 -97 70 -9 0
-63 55 -77 78 -5 8 -14 35 -21 62 -14 52 -4 76 25 64 8 -4 26 -7 40 -8z m-314
-69 c-13 -53 -191 -148 -275 -146 -14 0 6 9 46 19 115 30 201 85 218 141 9 28
19 16 11 -14z m-196 2 c0 -6 -4 -7 -10 -4 -5 3 -10 11 -10 16 0 6 5 7 10 4 6
-3 10 -11 10 -16z m380 -77 c-1 -15 -40 41 -40 57 0 9 8 3 20 -17 11 -18 20
-36 20 -40z m640 56 c0 4 9 8 20 8 18 0 19 -2 4 -24 -12 -18 -13 -26 -4 -32 6
-4 -10 -10 -36 -14 -63 -8 -74 -8 -74 4 0 6 10 10 22 10 16 0 19 3 11 11 -18
18 15 51 39 38 10 -5 18 -6 18 -1z m297 6 c-3 -3 -12 -4 -19 -1 -8 3 -5 6 6 6
11 1 17 -2 13 -5z m-133 -48 c-6 -15 -34 -23 -34 -10 0 8 34 34 38 30 1 -2 0
-11 -4 -20z m-1184 10 c0 -3 -4 -8 -10 -11 -5 -3 -10 -1 -10 4 0 6 5 11 10 11
6 0 10 -2 10 -4z m910 -20 c0 -3 -4 -8 -10 -11 -5 -3 -10 -1 -10 4 0 6 5 11
10 11 6 0 10 -2 10 -4z m180 0 c0 -11 -19 -15 -25 -6 -3 5 1 10 9 10 9 0 16
-2 16 -4z m20 -36 c0 -5 -5 -10 -11 -10 -5 0 -7 5 -4 10 3 6 8 10 11 10 2 0 4
-4 4 -10z m299 -234 c17 -21 -20 -96 -48 -96 -14 0 -15 -17 0 -22 15 -5 0 -38
-18 -38 -12 0 -13 -3 -4 -14 10 -11 9 -25 -3 -61 -9 -25 -16 -61 -16 -80 0
-28 -4 -36 -24 -41 -14 -3 -33 -1 -43 5 -10 6 -12 11 -5 11 22 0 13 20 -10 20
-19 0 -20 2 -8 10 13 9 13 11 0 20 -10 6 -11 10 -3 10 7 0 11 6 9 13 -1 6 -1
9 1 5 9 -16 24 -7 18 11 -3 10 0 23 8 29 16 14 23 87 6 77 -6 -4 -9 -16 -6
-26 3 -11 1 -19 -4 -19 -5 0 -9 6 -9 14 0 8 -7 16 -15 20 -12 4 -8 15 21 53
20 27 40 50 45 51 5 2 9 10 9 18 0 8 9 14 20 14 11 0 20 5 20 11 0 6 9 8 21 4
15 -5 19 -4 15 4 -10 16 9 14 23 -3z m312 -82 c6 -7 1 -29 -12 -58 -15 -35
-18 -51 -10 -60 13 -15 3 -76 -11 -76 -6 0 -6 -6 1 -14 9 -11 5 -15 -23 -18
-34 -4 -35 -3 -18 15 9 11 16 21 15 23 -4 9 10 44 18 44 5 0 9 7 9 16 0 8 -4
13 -9 10 -5 -3 -11 3 -14 14 -3 13 0 20 9 20 19 0 18 13 -7 44 l-20 26 21 0
c12 0 18 4 15 11 -4 6 -13 8 -21 5 -8 -3 -14 -1 -14 4 0 6 6 10 13 10 8 0 20
12 27 28 l14 27 4 -30 c2 -16 8 -35 13 -41z m-576 -84 c-5 -15 -3 -18 8 -14
17 6 32 -12 17 -21 -6 -4 -7 -13 -1 -23 4 -10 4 -49 -2 -90 -10 -66 -9 -75 6
-83 9 -6 17 -17 17 -24 0 -8 5 -15 10 -15 6 0 10 -5 10 -11 0 -7 11 -22 25
-35 19 -17 25 -33 25 -63 0 -22 -4 -43 -10 -46 -5 -3 -10 -28 -10 -54 0 -38
-5 -52 -25 -71 -15 -14 -25 -35 -25 -51 0 -27 -25 -58 -37 -45 -3 3 -6 98 -5
211 0 129 -3 205 -9 205 -6 0 -7 5 -4 10 3 6 1 10 -4 10 -11 0 -10 20 2 50 3
8 8 30 11 48 4 24 2 32 -9 32 -11 0 -15 11 -15 40 0 38 -1 40 -25 34 -19 -5
-25 -2 -25 10 0 12 10 16 41 16 36 0 40 -2 34 -20z m-121 -5 c3 -8 1 -15 -3
-15 -5 0 -11 7 -15 15 -3 8 -1 15 3 15 5 0 11 -7 15 -15z m-93 -18 c-10 -9
-11 -8 -5 6 3 10 9 15 12 12 3 -3 0 -11 -7 -18z m289 14 c0 -5 -7 -12 -16 -15
-14 -5 -15 -4 -4 9 14 17 20 19 20 6z m-110 -21 c0 -5 -4 -10 -10 -10 -5 0
-10 5 -10 10 0 6 5 10 10 10 6 0 10 -4 10 -10z m550 -10 c0 -5 -2 -10 -4 -10
-3 0 -8 5 -11 10 -3 6 -1 10 4 10 6 0 11 -4 11 -10z m58 -134 c3 -13 0 -16 -9
-11 -8 5 -10 4 -5 -3 6 -11 -19 -72 -29 -72 -3 0 -4 12 -3 28 1 15 -4 37 -10
49 -16 29 -16 29 20 28 24 0 34 -5 36 -19z m-58 -32 c0 -14 -3 -14 -15 -4 -8
7 -15 14 -15 16 0 2 7 4 15 4 8 0 15 -7 15 -16z m-1 -63 c0 -10 -2 -11 -6 -3
-2 6 -9 10 -14 6 -5 -3 -9 2 -9 10 0 10 6 13 15 10 8 -4 15 -14 14 -23z m-829
-2 c0 -11 -4 -18 -9 -14 -5 3 -12 1 -16 -5 -11 -18 27 -11 41 8 12 16 13 15
14 -5 0 -14 -6 -23 -15 -23 -8 0 -15 -7 -15 -15 0 -18 12 -19 27 -4 14 14 34
3 27 -15 -4 -10 -14 -12 -40 -6 -26 6 -34 5 -34 -6 0 -8 6 -11 16 -7 13 5 15
2 9 -15 -5 -17 -2 -22 10 -22 12 0 15 -5 11 -16 -5 -13 -1 -15 19 -10 14 4 25
2 25 -4 0 -5 -4 -9 -9 -7 -5 1 -11 -2 -12 -8 -2 -5 15 -14 39 -19 46 -10 52
-20 23 -35 -14 -8 -18 -7 -17 2 0 6 -2 13 -6 15 -5 1 -8 0 -8 -3 0 -3 0 -14 0
-26 0 -11 5 -17 10 -14 6 3 10 1 10 -4 0 -6 -4 -11 -10 -11 -5 0 -10 -9 -10
-20 0 -11 -4 -20 -9 -20 -10 0 -9 -19 2 -37 5 -8 4 -13 -2 -13 -6 0 -11 -7
-11 -15 0 -8 5 -15 11 -15 7 0 8 -11 4 -31 -5 -20 -3 -29 3 -25 5 3 10 -5 10
-19 0 -14 -4 -22 -9 -19 -5 3 -9 -2 -9 -11 0 -9 5 -13 10 -10 6 3 10 -5 10
-19 0 -17 -6 -26 -20 -28 -36 -5 -22 -23 21 -26 l42 -3 -39 -24 c-21 -13 -43
-21 -48 -18 -5 4 -6 1 -2 -6 4 -6 1 -14 -8 -17 -20 -8 -29 -36 -14 -46 11 -6
11 -10 0 -16 -7 -5 -12 -13 -10 -18 2 -5 -1 -10 -5 -11 -5 -1 -16 -10 -25 -20
-16 -18 -51 -20 -62 -3 -8 13 -34 -12 -64 -63 -15 -27 -33 -46 -39 -44 -7 3
-10 11 -8 18 2 8 5 37 6 64 5 167 3 158 25 152 13 -3 20 0 20 9 0 7 -6 11 -14
8 -8 -3 -17 -1 -21 5 -3 6 0 11 7 11 9 0 9 3 2 8 -6 4 -14 21 -18 37 -5 22 -4
26 4 15 7 -12 10 -7 10 19 0 31 2 33 13 17 11 -16 14 -15 35 13 18 25 19 31 7
31 -8 0 -15 5 -15 10 0 6 6 10 14 10 17 0 12 60 -7 72 -8 5 -8 8 -1 8 14 0 25
48 12 56 -4 3 -6 10 -2 15 3 5 10 6 16 3 8 -5 9 -1 5 10 -5 14 -3 17 8 12 10
-4 15 1 15 15 0 13 -4 18 -12 13 -7 -4 -8 -3 -4 4 4 7 14 12 22 12 11 0 13 6
8 23 -4 12 -12 25 -18 29 -6 4 -1 6 11 5 12 0 19 -5 17 -9 -3 -4 -2 -14 2 -20
5 -7 8 -22 8 -33 1 -32 20 -33 31 -2 8 24 6 31 -8 42 -11 8 -17 24 -16 46 1
19 -1 58 -5 87 -4 34 -3 52 4 52 6 0 8 5 5 10 -3 6 1 10 9 10 9 0 16 -9 16
-21z m-46 -124 c3 -8 1 -15 -4 -15 -6 0 -10 7 -10 15 0 8 2 15 4 15 2 0 6 -7
10 -15z m110 -4 c3 -5 -1 -11 -9 -15 -9 -3 -15 0 -15 9 0 16 16 20 24 6z m191
-171 c-4 -11 -13 -20 -21 -20 -17 0 -18 9 -3 47 9 25 11 26 20 10 6 -9 7 -26
4 -37z m-86 -25 c-2 -29 -10 -53 -23 -67 -20 -21 -20 -22 -1 -14 53 22 57 21
53 -14 -3 -35 -37 -66 -45 -42 -3 7 -12 19 -20 28 -13 13 -14 22 -5 52 6 20
10 44 10 52 -3 35 3 50 17 50 12 0 15 -10 14 -45z m151 -85 c0 -5 -4 -10 -9
-10 -5 0 -11 -13 -14 -30 -4 -16 -11 -30 -16 -30 -6 0 -8 6 -6 13 19 54 26 67
35 67 5 0 10 -4 10 -10z m-77 -25 c-3 -9 -8 -14 -10 -11 -3 3 -2 9 2 15 9 16
15 13 8 -4z m-40 -80 c-3 -9 -8 -14 -10 -11 -3 3 -2 9 2 15 9 16 15 13 8 -4z
m60 -15 c-3 -11 -12 -20 -20 -20 -11 0 -11 4 -3 20 6 11 15 20 19 20 5 0 7 -9
4 -20z m-88 -20 c-3 -5 -10 -10 -16 -10 -5 0 -9 5 -9 10 0 6 7 10 16 10 8 0
12 -4 9 -10z m39 -54 c14 -5 16 -9 7 -20 -6 -7 -9 -16 -6 -19 3 -4 2 -5 -1 -2
-4 2 -20 -7 -36 -20 -22 -19 -36 -23 -56 -19 -40 10 -45 18 -22 39 11 10 20
13 20 7 0 -7 12 -12 26 -12 16 0 24 5 21 13 -2 6 -11 11 -18 9 -8 -1 -3 6 11
17 13 11 27 18 30 17 3 -2 13 -6 24 -10z m-289 -186 c3 -5 1 -10 -4 -10 -6 0
-11 5 -11 10 0 6 2 10 4 10 3 0 8 -4 11 -10z m-25 -59 c0 -14 -18 -23 -31 -15
-8 4 -7 9 2 15 18 11 29 11 29 0z m-73 -37 c-3 -3 -12 -4 -19 -1 -8 3 -5 6 6
6 11 1 17 -2 13 -5z m-127 -34 c0 -5 -4 -10 -10 -10 -5 0 -10 5 -10 10 0 6 5
10 10 10 6 0 10 -4 10 -10z m-465 -58 c57 -4 73 -8 55 -13 -48 -14 -114 -9
-150 12 -27 15 -29 19 -10 14 14 -4 61 -9 105 -13z m2681 -1069 c-7 -7 -26 7
-26 19 0 6 6 6 15 -2 9 -7 13 -15 11 -17z m-28 -44 c-3 -8 -7 -3 -11 10 -4 17
-3 21 5 13 5 -5 8 -16 6 -23z m-18 -18 c13 -26 13 -31 -5 -31 -9 0 -12 -6 -9
-17 5 -15 4 -15 -6 1 -10 14 -10 20 1 26 10 7 10 11 0 24 -9 10 -9 16 -3 16 6
0 16 -9 22 -19z m-40 -13 c0 -16 -3 -19 -11 -11 -6 6 -8 16 -5 22 11 17 16 13
16 -11z m14 -79 c-3 -5 -10 -7 -15 -3 -5 3 -7 10 -3 15 3 5 10 7 15 3 5 -3 7
-10 3 -15z m-20 -31 c-8 -12 -34 11 -34 28 0 11 4 10 19 -3 11 -9 18 -20 15
-25z m-1924 -140 c0 -13 -23 -5 -28 10 -2 7 2 10 12 6 9 -3 16 -11 16 -16z
m-70 -36 c0 -10 3 -10 14 0 8 7 10 15 5 16 -5 2 -9 10 -9 18 0 8 16 -3 36 -23
19 -21 32 -30 28 -20 -3 9 -2 17 4 17 16 0 22 -28 9 -38 -23 -18 -67 -20 -77
-3 -5 9 -10 12 -10 6 0 -5 -5 -3 -11 5 -8 12 -9 10 -4 -8 6 -21 5 -22 -14 -10
-12 7 -21 23 -21 36 0 15 4 21 12 16 7 -5 9 -2 5 8 -3 9 -3 19 0 22 8 7 32
-25 33 -42z m236 -60 c6 -4 14 -15 17 -25 9 -25 -12 -17 -31 11 -14 22 -7 29
14 14z m94 -12 c13 -9 13 -11 0 -19 -8 -6 -11 -13 -7 -18 5 -4 12 -1 17 7 8
13 12 12 24 -5 9 -11 16 -24 16 -29 0 -4 7 -5 16 -2 8 3 12 2 9 -3 -3 -5 4
-13 15 -16 17 -5 19 -10 10 -20 -12 -15 -6 -35 11 -35 5 0 9 7 9 15 0 8 5 15
11 15 6 0 9 7 5 15 -4 11 2 15 22 15 35 0 75 -27 68 -46 -3 -9 1 -14 12 -14
10 0 36 -27 61 -65 25 -36 50 -70 57 -75 6 -6 12 -42 13 -85 l2 -75 -33 7
c-18 3 -36 11 -41 17 -5 7 -11 5 -19 -8 -10 -19 -11 -19 -22 1 -6 10 -24 36
-41 56 -23 29 -32 34 -43 24 -11 -8 -16 -7 -24 6 -6 12 -16 16 -29 12 -11 -4
-19 -3 -18 2 5 31 -3 43 -31 43 -23 0 -28 -4 -23 -16 5 -15 3 -14 -26 1 -23
11 -30 21 -27 33 4 11 -3 24 -19 36 -22 17 -26 44 -4 31 5 -4 9 -1 9 5 0 7 -8
9 -20 5 -11 -4 -20 -2 -20 4 0 6 5 11 10 11 6 0 10 17 10 38 0 20 4 52 9 70 7
21 6 32 -1 32 -7 0 -7 4 1 13 6 8 8 17 4 20 -10 11 10 8 27 -3z m1270 -55 c0
-8 5 -15 12 -15 9 0 9 -3 0 -12 -7 -7 -12 -20 -12 -30 0 -10 -5 -18 -11 -18
-7 0 -9 -10 -5 -24 3 -14 2 -27 -4 -31 -5 -3 -7 -12 -3 -20 4 -11 1 -13 -11
-9 -11 4 -16 0 -16 -14 0 -25 -77 -95 -96 -88 -8 3 -14 -1 -14 -8 0 -8 -7 -17
-16 -20 -10 -4 -13 -2 -8 6 4 7 9 34 10 60 2 47 22 108 36 108 4 0 9 10 11 23
l4 22 8 -22 c4 -13 11 -23 16 -23 9 0 1 28 -13 46 -5 7 -4 22 3 38 l12 25 28
-32 c20 -22 29 -27 29 -16 0 9 -7 22 -15 29 -21 18 -19 32 5 25 11 -4 20 -2
20 4 0 6 7 11 15 11 8 0 15 -7 15 -15z"/>
<path d="M4022 6335 c-11 -12 -10 -15 3 -15 8 0 15 7 15 15 0 18 -2 18 -18 0z"/>
<path d="M3990 6300 c0 -5 5 -10 11 -10 5 0 7 5 4 10 -3 6 -8 10 -11 10 -2 0
-4 -4 -4 -10z"/>
<path d="M5800 5640 c0 -5 5 -10 11 -10 5 0 7 5 4 10 -3 6 -8 10 -11 10 -2 0
-4 -4 -4 -10z"/>
<path d="M5806 5516 c3 -9 11 -16 16 -16 13 0 5 23 -10 28 -7 2 -10 -2 -6 -12z"/>
<path d="M5335 4601 c-3 -5 -1 -12 5 -16 5 -3 10 1 10 9 0 18 -6 21 -15 7z"/>
<path d="M5235 4530 c3 -5 8 -10 11 -10 2 0 4 5 4 10 0 6 -5 10 -11 10 -5 0
-7 -4 -4 -10z"/>
<path d="M4830 4044 c0 -8 5 -12 10 -9 6 4 8 11 5 16 -9 14 -15 11 -15 -7z"/>
<path d="M4850 4021 c0 -6 5 -13 10 -16 6 -3 10 1 10 9 0 9 -4 16 -10 16 -5 0
-10 -4 -10 -9z"/>
<path d="M4860 3700 c0 -5 4 -10 9 -10 6 0 13 5 16 10 3 6 -1 10 -9 10 -9 0
-16 -4 -16 -10z"/>
<path d="M4681 1804 c0 -11 3 -14 6 -6 3 7 2 16 -1 19 -3 4 -6 -2 -5 -13z"/>
<path d="M4965 1681 c-6 -11 9 -23 19 -14 9 9 7 23 -3 23 -6 0 -12 -4 -16 -9z"/>
<path d="M5060 1590 c0 -5 5 -10 10 -10 6 0 10 5 10 10 0 6 -4 10 -10 10 -5 0
-10 -4 -10 -10z"/>
<path d="M5110 1590 c0 -5 5 -10 11 -10 5 0 7 5 4 10 -3 6 -8 10 -11 10 -2 0
-4 -4 -4 -10z"/>
<path d="M5115 1460 c3 -5 8 -10 11 -10 2 0 4 5 4 10 0 6 -5 10 -11 10 -5 0
-7 -4 -4 -10z"/>
<path d="M6150 1651 c0 -5 7 -15 17 -22 15 -13 15 -12 4 9 -12 23 -21 28 -21
13z"/>
</g>
</svg>
